<?xml version="1.0" encoding="UTF-8"?>
<svg xmlns="http://www.w3.org/2000/svg" xmlns:xlink="http://www.w3.org/1999/xlink" width="22px" height="22px" viewBox="0 0 22 22" version="1.1">
<g id="surface1">
<path style=" stroke:none;fill-rule:nonzero;fill:rgb(0%,0%,0%);fill-opacity:1;" d="M 11 11 C 14.472656 11 17.285156 8.539062 17.285156 5.5 C 17.285156 2.460938 14.472656 0 11 0 C 7.527344 0 4.714844 2.460938 4.714844 5.5 C 4.714844 8.539062 7.527344 11 11 11 Z M 13.488281 13.0625 L 8.511719 13.0625 C 3.8125 13.0625 0 16.398438 0 20.507812 C 0 21.332031 0.761719 22 1.703125 22 L 20.300781 22 C 21.238281 22 22 21.335938 22 20.507812 C 22 16.398438 18.1875 13.0625 13.488281 13.0625 Z M 13.488281 13.0625 "/>
</g>
</svg>
