<?xml version="1.0" encoding="UTF-8"?>
<svg xmlns="http://www.w3.org/2000/svg" xmlns:xlink="http://www.w3.org/1999/xlink" width="22px" height="22px" viewBox="0 0 22 22" version="1.1">
<g id="surface1">
<path style=" stroke:none;fill-rule:nonzero;fill:rgb(0%,0%,0%);fill-opacity:1;" d="M 21.992188 10.976562 C 21.992188 11.75 21.417969 12.359375 20.769531 12.359375 L 19.546875 12.359375 L 19.574219 19.238281 C 19.574219 19.359375 19.566406 19.46875 19.554688 19.585938 L 19.554688 20.28125 C 19.554688 21.230469 18.871094 22 18.027344 22 L 17.417969 22 C 17.375 22 17.332031 21.960938 17.289062 21.996094 C 17.238281 21.960938 17.183594 22 17.128906 22 L 14.972656 22 C 14.128906 22 13.445312 21.230469 13.445312 20.28125 L 13.445312 16.5 C 13.445312 15.738281 12.898438 15.125 12.222656 15.125 L 9.777344 15.125 C 9.101562 15.125 8.554688 15.738281 8.554688 16.5 L 8.554688 20.28125 C 8.554688 21.230469 7.871094 22 7.027344 22 L 4.894531 22 C 4.835938 22 4.777344 21.996094 4.722656 21.992188 C 4.675781 21.996094 4.628906 22 4.582031 22 L 3.972656 22 C 3.128906 22 2.445312 21.230469 2.445312 20.28125 L 2.445312 15.46875 C 2.445312 15.429688 2.445312 15.386719 2.449219 15.347656 L 2.449219 12.359375 L 1.222656 12.359375 C 0.535156 12.359375 0 11.75 0 10.976562 C 0 10.59375 0.113281 10.25 0.382812 9.945312 L 10.175781 0.34375 C 10.441406 0.0429688 10.746094 0 11.015625 0 C 11.28125 0 11.589844 0.0859375 11.820312 0.300781 L 21.570312 9.945312 C 21.878906 10.25 22.035156 10.59375 21.992188 10.976562 Z M 21.992188 10.976562 "/>
</g>
</svg>
